<?xml version="1.0" encoding="utf-8"?>
<!-- Generator: Adobe Illustrator 19.2.1, SVG Export Plug-In . SVG Version: 6.00 Build 0)  -->
<svg version="1.1" id="layer" xmlns="http://www.w3.org/2000/svg" xmlns:xlink="http://www.w3.org/1999/xlink" x="0px" y="0px"
	 viewBox="0 0 652 652" style="enable-background:new 0 0 652 652;" xml:space="preserve">
<style type="text/css">
	.st0{fill:#165788;}
</style>
<path class="st0" d="M227,309.1c0-15.9,14.4-21.8,30.5-21.8s30.3,5.9,30.3,21.8V389c0,16-14.4,21.8-30.3,21.8S227,404.9,227,389
	V309.1z M262.1,312.2c0-3.3,0-7.9-4.6-7.9c-4.6,0-4.6,4.6-4.6,7.9v73c0,3.3,0,7.9,4.6,7.9c4.6,0,4.6-4.6,4.6-7.9V312.2z
	 M297.6,408.5V289.6H328c15.9,0,30.5,5.9,30.5,24.7v9.4c0.6,10.2-7.2,18.9-17.4,19.5c-0.9,0-1.7,0-2.6,0c16.3,0.9,20,6.5,20,20.2
	V387c-0.1,7.3,1.2,14.5,3.8,21.2H336c-2.6-4.7-3.8-10.1-3.5-15.4v-27.3c0-7.4,0-13.3-9.1-13.3v56L297.6,408.5z M323,338.7h3.1
	c4.2,0,6-1.8,6-7.5v-17.6c0-5.7-1.8-7.5-6-7.5H323V338.7z M367.3,309.1c0-15.9,14.4-21.8,30.5-21.8c16,0,30.3,5.9,30.3,21.8V389
	c0,16-14.4,21.8-30.3,21.8s-30.5-5.9-30.5-21.8V309.1z M402.6,312.2c0-3.3,0-7.9-4.6-7.9c-4.6,0-4.6,4.6-4.6,7.9v73
	c0,3.3,0,7.9,4.6,7.9c4.6,0,4.6-4.6,4.6-7.9V312.2z M437.6,408.5V289.6h34.2l11.7,75.7l0.1,2.8h0.4v-78.6h20.6v118.9h-31.9
	l-14.1-90.8l-0.1-3.3h-0.2v94.1H437.6z M559.5,309.1c0-15.9,14.4-21.8,30.5-21.8c16,0,30.3,5.9,30.3,21.8V389
	c0,16-14.4,21.8-30.3,21.8c-15.9,0-30.5-5.9-30.5-21.8V309.1z M594.5,312.2c0-3.3,0-7.9-4.6-7.9c-4.6,0-4.6,4.6-4.6,7.9v73
	c0,3.3,0,7.9,4.6,7.9c4.6,0,4.6-4.6,4.6-7.9V312.2z M555.2,289.6h-45.6v17.9h9.9v101h25.9v-101h9.9
	C555.2,307.5,555.2,289.6,555.2,289.6z M237.1,260.5h-64.7v19.1h19.1v128.9h26.4V279.6h19.2C237.1,279.6,237.1,260.5,237.1,260.5z
	 M170.4,412.8v-0.7c-17.1-7.4-35.6-10.6-54.1-9.5h-96v6.5h129.5c7,0.5,13.9,1.9,20.6,4.2 M132.2,233.5l-3.8-3.6
	c-1.1-0.5-2.4-0.5-3.6,0l-5.8,3.2v28.2c-4.4,7.2-10.8,13.1-18.4,16.9c-1.7,0.7-2.8,2.6-2.6,4.4v105.2c-3.8,0-10,0.9-10,0.9v-89
	c0-3.3-1.5-4.3-4.6-5.1c-11.5-2.7-22.8-6.5-33.5-11.3v-18.3l-4.9-2.5c-1.4-0.5-2.8-0.5-4.2,0c-2.1,1-4.1,2.2-6,3.5
	c-8.6,4.9-14,13.8-14.4,23.7v108.8h9.7V289.7c-0.1-6.7,3.4-13,9.2-16.3h0.7v125.1h9.6V293.7c7.6,2.8,12.3,4.8,20.6,7.4l7.9,2.1v87.1
	c-9.3,1.7-18.4,4.5-27,8.4h18.5c14.6-6.5,30.5-9.9,46.5-9.9l-8.9-0.7V285.4h1c4-2.4,7.6-5.4,10.7-8.8v121.8h10V244.7
	c6,7.9,9.3,17.6,9.5,27.5v127.3c3,0,6.7,0.7,9.7,1.6V272C147.8,257.6,142.1,243.9,132.2,233.5"/>
</svg>
